# xmcd
#
# Track frame offsets: 
#        150
#        13901
#        32370
#        49915
#        65132
#        86175
#        107178
#        125556
#        138824
#        166904
#        189661
#        201413
#        220849
#
# Disc length: 3086 seconds
#
# Revision: 0
# Processed by: cddbd v1.5.1PL0 Copyright (c) Steve Scherf et al.
# Submitted via: ExactAudioCopy v0.90b4
#
DISCID=c20c0c0d
DTITLE=Boyd Small - So easy
DYEAR=2001
DGENRE=Blues
TTITLE0=Jungle law
TTITLE1=Say when
TTITLE2=Straight up
TTITLE3=Just one
TTITLE4=Too down for the fight
TTITLE5=Paper bag
TTITLE6='64 Belair
TTITLE7=Lessons never learned
TTITLE8=I'm bitter
TTITLE9=Kansas
TTITLE10=Solid ground
TTITLE11=Give me my wings
TTITLE12=The wall
EXTD=
EXTT0=
EXTT1=
EXTT2=
EXTT3=
EXTT4=
EXTT5=
EXTT6=
EXTT7=
EXTT8=
EXTT9=
EXTT10=
EXTT11=
EXTT12=
PLAYORDER=
